<svg width="192" height="48" viewBox="0 0 192 48" fill="none" xmlns="http://www.w3.org/2000/svg">
<path fill-rule="evenodd" clip-rule="evenodd" d="M25.5504 5.84165C30.5676 5.84165 35.1667 7.87898 38.465 11.1665C41.7634 14.454 43.8074 18.9917 43.8074 24.0387C43.8074 27.2336 42.9712 30.2432 41.5311 32.8825L39.3477 28.669C39.8122 27.2336 40.091 25.6593 40.091 24.085C40.091 20.1029 38.465 16.4913 35.8635 13.852C33.262 11.2591 29.6385 9.63849 25.5969 9.63849C21.6017 9.63849 17.9782 11.2591 15.3303 13.852C12.7288 16.445 11.1028 20.0566 11.1028 24.085C11.1028 28.067 12.7288 31.6786 15.3303 34.3179C17.9318 36.9109 21.5553 38.5315 25.5969 38.5315C29.5921 38.5315 33.2156 36.9109 35.8635 34.3179C36.4675 33.716 37.0249 33.0214 37.5359 32.3269L40.1374 35.0587C39.6264 35.707 39.069 36.3552 38.465 36.9572C35.1667 40.2447 30.6141 42.282 25.5504 42.282C20.5333 42.282 15.9342 40.2447 12.6359 36.9572C9.33752 33.6697 7.29349 29.132 7.29349 24.085C7.29349 19.0843 9.33752 14.5003 12.6359 11.2128C15.9342 7.87898 20.4868 5.84165 25.5504 5.84165Z" fill="#4D4D4D"/>
<path fill-rule="evenodd" clip-rule="evenodd" d="M42.8318 4.35996C47.1522 7.55486 49.9395 11.9999 51.1009 16.8154L45.8514 16.908C44.3649 13.3427 41.9492 10.1015 38.6044 7.60117C31.1715 2.09113 21.4159 1.90592 13.9366 6.39729C21.6017 -1.15007 33.9124 -2.26134 42.8318 4.35996Z" fill="#1AB51A"/>
<path fill-rule="evenodd" clip-rule="evenodd" d="M8.26906 43.6248C3.94871 40.4299 1.16138 35.9848 0 31.1693L5.24946 31.0767C6.73603 34.642 9.1517 37.8832 12.4965 40.3836C19.9293 45.8936 29.685 46.0788 37.1643 41.5874C29.4527 49.1811 17.1885 50.2461 8.26906 43.6248Z" fill="#4D4D4D"/>
<path fill-rule="evenodd" clip-rule="evenodd" d="M67.9177 10.935C71.7271 10.935 74.9325 12.324 77.5805 15.1485L74.2821 18.1582C72.5633 16.4913 70.4263 15.6579 67.9177 15.6579C65.6414 15.6579 63.7368 16.445 62.2502 17.973C60.7172 19.5473 59.9739 21.492 59.9739 23.8998C59.9739 26.3075 60.7172 28.2985 62.2502 29.8728C63.7832 31.4008 65.6879 32.188 67.9177 32.188C70.4728 32.188 72.6097 31.3545 74.2821 29.6876L77.5805 32.6973C74.9325 35.5218 71.7271 36.9109 67.9177 36.9109C64.2942 36.9109 61.2282 35.6607 58.7196 33.114C56.1645 30.5674 54.9102 27.5114 54.9102 23.8998C54.9102 20.2881 56.1645 17.2321 58.7196 14.6855C61.2282 12.1851 64.2942 10.935 67.9177 10.935ZM87.8471 18.2045C90.4486 18.2045 92.6785 19.1306 94.4902 20.9364C96.302 22.7885 97.2311 24.9647 97.2311 27.5577C97.2311 30.1506 96.302 32.3269 94.4902 34.1327C92.6785 35.9385 90.4486 36.8645 87.8471 36.8645C85.2456 36.8645 83.0157 35.9385 81.204 34.1327C79.3922 32.3269 78.4631 30.1043 78.4631 27.5577C78.4631 24.9647 79.3922 22.7422 81.204 20.9364C83.0622 19.1306 85.2456 18.2045 87.8471 18.2045ZM91.1454 24.085C90.2163 23.1589 89.1014 22.6959 87.8471 22.6959C86.5928 22.6959 85.4779 23.1589 84.5488 24.085C83.6197 25.011 83.1551 26.1686 83.1551 27.604C83.1551 29.0394 83.6197 30.1969 84.5488 31.123C85.4779 32.0028 86.5928 32.4658 87.8936 32.4658C89.1478 32.4658 90.2628 32.0028 91.1919 31.123C92.121 30.2432 92.5855 29.0394 92.5855 27.604C92.5855 26.1686 92.0745 24.9647 91.1454 24.085ZM116.649 36.6793H112.004V30.8452C110.842 32.0954 109.217 32.6973 107.126 32.6973C104.385 32.6973 102.341 31.8638 100.994 30.2432C99.6468 28.6226 98.9964 26.4001 98.9964 23.6219V18.436H103.642V23.2978C103.642 25.011 103.967 26.2149 104.617 27.002C105.268 27.7892 106.336 28.1596 107.823 28.1596C110.61 28.1596 112.004 26.6316 112.004 23.5756V18.3897H116.649V36.6793ZM137.415 36.6793H132.769V25.9371L123.385 36.6793H120.366V18.436H125.011V29.1783L134.349 18.436H137.369V36.6793H137.415Z" fill="#4D4D4D"/>
<path fill-rule="evenodd" clip-rule="evenodd" d="M153.163 10.9813C156.973 10.9813 160.178 12.3704 162.826 15.1948L159.528 18.2045C157.855 16.5376 155.718 15.7042 153.163 15.7042C150.887 15.7042 148.982 16.4913 147.496 18.0193C145.963 19.5473 145.219 21.5383 145.219 23.9924C145.219 26.4001 145.963 28.3911 147.496 29.9191C149.029 31.4934 150.933 32.2343 153.163 32.2343C154.882 32.2343 156.415 31.7712 157.762 30.7989V26.4001H153.07V22.6033H162.78V32.7436C160.132 35.5681 156.926 36.9572 153.117 36.9572C149.493 36.9572 146.427 35.707 143.919 33.1603C141.364 30.6137 140.109 27.5577 140.109 23.9461C140.109 20.3344 141.364 17.2785 143.919 14.7318C146.52 12.2314 149.586 10.9813 153.163 10.9813ZM169.748 14.7318C172.303 12.1851 175.369 10.935 178.946 10.935C182.57 10.935 185.636 12.1851 188.191 14.7318C190.746 17.2785 192 20.3344 192 23.9461C192 27.5577 190.746 30.6137 188.191 33.1603C185.636 35.707 182.57 36.9572 178.946 36.9572C175.323 36.9572 172.256 35.707 169.748 33.1603C167.193 30.6137 165.939 27.5577 165.939 23.9461C165.939 20.3344 167.239 17.2785 169.748 14.7318ZM184.66 17.973C183.127 16.3987 181.222 15.6579 178.946 15.6579C176.67 15.6579 174.765 16.445 173.278 17.973C171.745 19.5473 171.002 21.492 171.002 23.8998C171.002 26.3075 171.745 28.2985 173.278 29.8728C174.812 31.4008 176.716 32.188 178.946 32.188C181.222 32.188 183.127 31.4008 184.66 29.8728C186.193 28.3448 186.936 26.3538 186.936 23.8998C186.983 21.5383 186.193 19.5473 184.66 17.973Z" fill="#1AB51A"/>
<path fill-rule="evenodd" clip-rule="evenodd" d="M25.5504 8.06419C29.9637 8.06419 33.9589 9.86999 36.8391 12.7408C39.7193 15.6115 41.5311 19.5936 41.5311 23.9924C41.5311 26.2612 41.0665 28.3911 40.1839 30.3358L38.0469 26.2149C38.1863 25.4741 38.2328 24.7332 38.2328 23.9924C38.2328 20.5197 36.7926 17.3247 34.5163 15.0559C32.24 12.7871 29.0346 11.3517 25.5504 11.3517C22.0663 11.3517 18.8609 12.7871 16.5846 15.0559C14.3082 17.3247 12.8681 20.5197 12.8681 23.9924C12.8681 27.4651 14.3082 30.66 16.5846 32.9288C18.8609 35.1976 22.0663 36.633 25.5504 36.633C29.0346 36.633 32.24 35.1976 34.5163 32.9288C35.1667 32.2806 35.7242 31.586 36.1887 30.8452L38.5115 33.2529C38.0005 33.9475 37.443 34.5957 36.8391 35.1976C33.9589 38.0684 29.9637 39.8742 25.5504 39.8742C21.1372 39.8742 17.142 38.0684 14.2618 35.1976C11.3816 32.3269 9.56979 28.3448 9.56979 23.9461C9.56979 19.5473 11.3816 15.5653 14.2618 12.6945C17.142 9.87 21.1372 8.06419 25.5504 8.06419Z" fill="#4D4D4D"/>
<path fill-rule="evenodd" clip-rule="evenodd" d="M13.472 30.3822L25.5504 13.7131L46.5947 42.6987L31.729 28.4374L30.3353 29.3635L25.5504 25.474L19.5577 30.3822H13.472Z" fill="#4D4D4D"/>
<path fill-rule="evenodd" clip-rule="evenodd" d="M83.9448 15.2411H83.1551V12.8797H81.7614V15.2411H80.9717V12.0925H83.9448V15.2411ZM85.6172 12.5556C85.8959 12.2314 86.2211 12.0925 86.6857 12.0925C87.1502 12.0925 87.4754 12.2314 87.8006 12.5556C88.0793 12.8797 88.2187 13.2501 88.2187 13.7131C88.2187 14.1762 88.0793 14.5466 87.8006 14.8707C87.5219 15.1948 87.1502 15.3337 86.6857 15.3337C86.3605 15.3337 86.0818 15.1948 85.8495 14.9633V16.445H85.0597V12.1388H85.6172V12.5556ZM86.5928 12.8334C86.3605 12.8334 86.1747 12.926 86.0353 13.0649C85.8959 13.2038 85.803 13.4353 85.803 13.6668C85.803 13.8983 85.8959 14.1299 86.0353 14.2688C86.1747 14.4077 86.407 14.5003 86.5928 14.5003C86.7786 14.5003 87.0109 14.4077 87.1502 14.2688C87.2896 14.1299 87.3825 13.8983 87.3825 13.6668C87.3825 13.4353 87.2896 13.2038 87.1502 13.0649C87.0109 12.926 86.8251 12.8334 86.5928 12.8334ZM90.5415 12.0462C91.006 12.0462 91.3777 12.1851 91.7029 12.5093C92.0281 12.8334 92.1674 13.2038 92.1674 13.6668C92.1674 14.1299 92.0281 14.5003 91.7029 14.8244C91.3777 15.1485 91.006 15.2874 90.5415 15.2874C90.0769 15.2874 89.7053 15.1485 89.3801 14.8244C89.0549 14.5003 88.9155 14.1299 88.9155 13.6668C88.9155 13.2038 89.0549 12.8334 89.3801 12.5093C89.7053 12.2314 90.0769 12.0462 90.5415 12.0462ZM91.0989 13.0649C90.9596 12.926 90.7273 12.8334 90.5415 12.8334C90.3557 12.8334 90.1234 12.926 89.984 13.0649C89.8447 13.2038 89.7517 13.4353 89.7517 13.6668C89.7517 13.8983 89.8447 14.1299 89.984 14.2688C90.1234 14.4077 90.3557 14.5003 90.5415 14.5003C90.7738 14.5003 90.9596 14.4077 91.0989 14.2688C91.2383 14.1299 91.3312 13.8983 91.3312 13.6668C91.3312 13.4353 91.2848 13.2038 91.0989 13.0649ZM95.187 15.2411L94.6296 14.4077C94.5366 14.2688 94.4437 14.1299 94.3508 14.0836C94.2579 14.0373 94.165 13.9909 94.0256 13.9909H93.7934V15.2411H93.0036V12.0925H93.7934V13.2501H93.9792C94.1185 13.2501 94.2114 13.2038 94.3044 13.1575C94.3973 13.1112 94.4902 13.0186 94.5831 12.8334L95.0941 12.0925H95.9768L95.2799 13.1575C95.1406 13.389 94.9547 13.5742 94.8154 13.6205C94.9547 13.6668 95.1406 13.8057 95.2799 14.0836L96.0232 15.2411H95.187ZM99.6467 15.2411H99.0893L99.0428 14.7781C98.7641 15.1022 98.4389 15.2411 97.9743 15.2411C97.5098 15.2411 97.1846 15.1022 96.8594 14.7781C96.5807 14.454 96.4413 14.0836 96.4413 13.6205C96.4413 13.1575 96.5807 12.7871 96.8594 12.463C97.1381 12.1388 97.5098 11.9999 97.9743 11.9999C98.4389 11.9999 98.7641 12.1851 99.0428 12.5093L99.0893 12.0462H99.6467V15.2411ZM98.1137 14.5003C98.346 14.5003 98.5318 14.4077 98.6712 14.2688C98.8105 14.1299 98.9035 13.8983 98.9035 13.6668C98.9035 13.4353 98.8105 13.2038 98.6712 13.0649C98.5318 12.926 98.2995 12.8334 98.1137 12.8334C97.8814 12.8334 97.6956 12.926 97.5562 13.0649C97.4169 13.2038 97.324 13.4353 97.324 13.6668C97.324 13.8983 97.4169 14.1299 97.5562 14.2688C97.6956 14.4077 97.8814 14.5003 98.1137 14.5003ZM102.202 12.8797V15.2411H101.412V12.8797H100.436V12.0925H103.224V12.8797H102.202ZM109.031 15.2411H108.473L108.427 14.7781C108.148 15.1022 107.823 15.2411 107.358 15.2411C106.894 15.2411 106.569 15.1022 106.243 14.7781C105.965 14.454 105.825 14.0836 105.825 13.6205C105.825 13.1575 105.965 12.7871 106.243 12.463C106.522 12.1388 106.894 11.9999 107.358 11.9999C107.823 11.9999 108.148 12.1851 108.427 12.5093L108.473 12.0462H109.031V15.2411ZM107.498 14.5003C107.73 14.5003 107.916 14.4077 108.055 14.2688C108.195 14.1299 108.287 13.8983 108.287 13.6668C108.287 13.4353 108.195 13.2038 108.055 13.0649C107.916 12.926 107.684 12.8334 107.498 12.8334C107.312 12.8334 107.08 12.926 106.94 13.0649C106.801 13.2038 106.708 13.4353 106.708 13.6668C106.708 13.8983 106.801 14.1299 106.94 14.2688C107.08 14.4077 107.265 14.5003 107.498 14.5003ZM110.099 12.0925H111.772C112.515 12.0925 112.84 12.3704 112.84 12.926C112.84 13.2501 112.701 13.4816 112.422 13.5742C112.794 13.6668 112.979 13.8983 112.979 14.2688C112.979 14.5929 112.887 14.8244 112.701 15.0096C112.515 15.1485 112.19 15.2411 111.772 15.2411H110.099V12.0925ZM110.935 12.7871V13.3427H111.725C111.957 13.3427 112.05 13.2501 112.05 13.0649C112.05 12.8797 111.957 12.7871 111.725 12.7871H110.935ZM110.935 14.5466H111.818C112.097 14.5466 112.236 14.454 112.236 14.2225C112.236 13.9909 112.097 13.8983 111.864 13.8983H110.982V14.5466H110.935ZM115.349 12.8797V15.2411H114.559V12.8797H113.583V12.0925H116.371V12.8797H115.349ZM118.461 12.0462C118.926 12.0462 119.297 12.1851 119.623 12.5093C119.948 12.8334 120.087 13.2038 120.087 13.6668C120.087 14.1299 119.948 14.5003 119.623 14.8244C119.297 15.1485 118.926 15.2874 118.461 15.2874C117.997 15.2874 117.625 15.1485 117.3 14.8244C116.975 14.5003 116.835 14.1299 116.835 13.6668C116.835 13.2038 116.975 12.8334 117.3 12.5093C117.625 12.2314 117.997 12.0462 118.461 12.0462ZM119.019 13.0649C118.879 12.926 118.647 12.8334 118.461 12.8334C118.229 12.8334 118.043 12.926 117.904 13.0649C117.764 13.2038 117.671 13.4353 117.671 13.6668C117.671 13.8983 117.764 14.1299 117.904 14.2688C118.043 14.4077 118.275 14.5003 118.461 14.5003C118.693 14.5003 118.879 14.4077 119.019 14.2688C119.158 14.1299 119.251 13.8983 119.251 13.6668C119.251 13.4353 119.204 13.2038 119.019 13.0649ZM122.363 13.6668H120.784V13.1575H122.363V13.6668ZM126.591 15.2411H125.801V13.389L124.918 14.4077L124.036 13.389V15.2411H123.246V12.0925H123.757L124.918 13.4353L126.08 12.0925H126.591V15.2411ZM129.099 12.0462C129.564 12.0462 129.936 12.1851 130.261 12.5093C130.586 12.8334 130.725 13.2038 130.725 13.6668C130.725 14.1299 130.586 14.5003 130.261 14.8244C129.936 15.1485 129.564 15.2874 129.099 15.2874C128.635 15.2874 128.263 15.1485 127.938 14.8244C127.613 14.5003 127.473 14.1299 127.473 13.6668C127.473 13.2038 127.613 12.8334 127.938 12.5093C128.31 12.2314 128.681 12.0462 129.099 12.0462ZM129.703 13.0649C129.564 12.926 129.332 12.8334 129.146 12.8334C128.914 12.8334 128.728 12.926 128.588 13.0649C128.449 13.2038 128.356 13.4353 128.356 13.6668C128.356 13.8983 128.449 14.1299 128.588 14.2688C128.728 14.4077 128.96 14.5003 129.146 14.5003C129.378 14.5003 129.564 14.4077 129.703 14.2688C129.843 14.1299 129.936 13.8983 129.936 13.6668C129.936 13.4353 129.843 13.2038 129.703 13.0649ZM133.048 12.8797V15.2411H132.258V12.8797H131.283V12.0925H134.07V12.8797H133.048ZM136.161 12.0462C136.625 12.0462 136.997 12.1851 137.322 12.5093C137.647 12.8334 137.787 13.2038 137.787 13.6668C137.787 14.1299 137.647 14.5003 137.322 14.8244C136.997 15.1485 136.625 15.2874 136.161 15.2874C135.696 15.2874 135.324 15.1485 134.999 14.8244C134.674 14.5003 134.535 14.1299 134.535 13.6668C134.535 13.2038 134.674 12.8334 134.999 12.5093C135.324 12.2314 135.696 12.0462 136.161 12.0462ZM136.718 13.0649C136.579 12.926 136.346 12.8334 136.161 12.8334C135.928 12.8334 135.743 12.926 135.603 13.0649C135.464 13.2038 135.371 13.4353 135.371 13.6668C135.371 13.8983 135.464 14.1299 135.603 14.2688C135.743 14.4077 135.975 14.5003 136.161 14.5003C136.393 14.5003 136.579 14.4077 136.718 14.2688C136.857 14.1299 136.95 13.8983 136.95 13.6668C136.95 13.4353 136.904 13.2038 136.718 13.0649Z" fill="#1AB51A"/>
</svg>
