<svg width="38" height="38" viewBox="0 0 38 38" fill="none" xmlns="http://www.w3.org/2000/svg">
<path d="M29 12.9999C29 11.9762 28.6094 10.9526 27.8284 10.1716C27.0474 9.39052 26.0237 9 25 9M25 25C31.6274 25 37 19.6274 37 13C37 6.37258 31.6274 1 25 1C18.3726 1 13 6.37258 13 13C13 13.5474 13.0366 14.0862 13.1076 14.6141C13.2244 15.4824 13.2827 15.9165 13.2434 16.1912C13.2025 16.4773 13.1504 16.6315 13.0094 16.8838C12.874 17.126 12.6354 17.3646 12.1583 17.8417L1.93726 28.0627C1.59135 28.4086 1.4184 28.5816 1.29472 28.7834C1.18506 28.9624 1.10425 29.1575 1.05526 29.3615C1 29.5917 1 29.8363 1 30.3255V33.8C1 34.9201 1 35.4802 1.21799 35.908C1.40973 36.2843 1.71569 36.5903 2.09202 36.782C2.51984 37 3.07989 37 4.2 37H9V33H13V29H17L20.1583 25.8417C20.6354 25.3646 20.874 25.126 21.1162 24.9906C21.3685 24.8496 21.5227 24.7975 21.8088 24.7566C22.0835 24.7173 22.5176 24.7756 23.3859 24.8924C23.9138 24.9634 24.4526 25 25 25Z" stroke="#1AB51A" stroke-width="2" stroke-linecap="round" stroke-linejoin="round"/>
</svg>
