<svg width="24" height="24" viewBox="0 0 24 24" fill="none" xmlns="http://www.w3.org/2000/svg">
<g clip-path="url(#clip0_33_289)">
<path d="M0.100374 11.8923C0.0996504 13.9882 0.649741 16.0344 1.69539 17.8378L0 24L6.33482 22.3464C8.08027 23.294 10.0453 23.7934 12.0452 23.7942H12.0503C18.6358 23.7942 23.9972 18.4585 24 11.9016C24.0011 8.7236 22.7591 5.73561 20.5031 3.48779C18.2468 1.23998 15.2468 0.00137166 12.0503 0C5.4633 0 0.102928 5.33474 0.100173 11.892M3.87261 17.5271L3.63615 17.1532C2.64178 15.5793 2.11697 13.7604 2.1177 11.8929C2.11987 6.4429 6.57525 2.00866 12.0538 2.00866C14.7068 2.00969 17.2002 3.03936 19.0758 4.90753C20.9511 6.77584 21.983 9.25947 21.9823 11.9006C21.9799 17.3509 17.5244 21.7855 12.05 21.7855H12.0461C10.2636 21.7845 8.51549 21.3081 6.99094 20.4075L6.6281 20.1934L2.86874 21.1746L3.87261 17.5271ZM12.0503 23.7942C12.0501 23.7942 12.05 23.7942 12.0503 23.7942Z" fill="#1AB51A"/>
<path fill-rule="evenodd" clip-rule="evenodd" d="M9.06376 6.92009C8.84005 6.42506 8.60467 6.41515 8.3919 6.40644C8.21777 6.39906 8.01862 6.39955 7.8197 6.39955C7.62054 6.39955 7.29706 6.47394 7.02353 6.7714C6.74976 7.06887 5.97839 7.78794 5.97839 9.25037C5.97839 10.7129 7.04847 12.1261 7.19755 12.3246C7.34689 12.5228 9.26319 15.62 12.2979 16.8113C14.8201 17.8015 15.3334 17.6046 15.8808 17.555C16.4283 17.5055 17.6474 16.8361 17.8962 16.142C18.145 15.448 18.145 14.8531 18.0704 14.7288C17.9958 14.6049 17.7966 14.5305 17.4981 14.382C17.1994 14.2333 15.7315 13.5142 15.4579 13.4149C15.1841 13.3159 14.985 13.2664 14.7859 13.564C14.5868 13.8612 14.015 14.5306 13.8407 14.7288C13.6666 14.9275 13.4923 14.9523 13.1938 14.8036C12.8951 14.6544 11.9334 14.3409 10.7926 13.3283C9.90497 12.5404 9.30576 11.5675 9.1315 11.2698C8.95737 10.9726 9.11291 10.8116 9.26262 10.6634C9.39677 10.5302 9.5613 10.3163 9.71065 10.1429C9.85962 9.96926 9.90933 9.84538 10.0088 9.6471C10.1085 9.44871 10.0587 9.27511 9.98406 9.12642C9.90933 8.97774 9.32926 7.50788 9.06376 6.92009Z" fill="#1AB51A"/>
</g>
<defs>
<clipPath id="clip0_33_289">
<rect width="24" height="24" fill="white"/>
</clipPath>
</defs>
</svg>
